<svg xmlns="http://www.w3.org/2000/svg" version="1.1" viewBox="2 2 36 36" height="40" width="40">
<path d="m 37.281935,2.7180643 c -0.957419,-0.9574191 -2.498967,-0.9574191 -3.456386,0 L 20,16.543614 6.1744511,2.7180643 c -0.9574189,-0.9574191 -2.4989676,-0.9574191 -3.4563869,0 -0.9574191,0.9574192 -0.9574191,2.498968 0,3.4563872 L 16.543613,20 2.7180642,33.825549 c -0.9574191,0.95742 -0.9574191,2.498967 0,3.456387 0.9574193,0.957419 2.498968,0.957419 3.4563869,0 L 20,23.456387 33.825549,37.281936 c 0.957419,0.957419 2.498967,0.957419 3.456386,0 0.95742,-0.95742 0.95742,-2.498967 0,-3.456387 L 23.456386,20 37.281935,6.1744515 c 0.95742,-0.9574192 0.95742,-2.498968 0,-3.4563872 z" />
</svg>
