<svg version="1.1" xmlns="http://www.w3.org/2000/svg" xmlns:xlink="http://www.w3.org/1999/xlink" x="0px" y="0px"
     viewBox="0 0 25.8 22.8" style="enable-background:new 0 0 25.8 22.8;" xml:space="preserve">
<path d="M16.3,9.7l5.3,4.9l4.3-6l-2-1.3L22.4,9
    c-1.2-5.2-5.8-9-11.2-9C4.9,0.2-0.1,5.3,0,11.6c0,6.1,4.9,11.1,11,11.2c0.1,0,0.1,0,0.2,0c3.1,0,6-1.2,8.2-3.3l-1.8-1.8
    c-1.7,1.7-4,2.6-6.3,2.6c-4.7,0-8.6-3.7-8.6-8.4c0-0.1,0-0.1,0-0.2c-0.1-4.9,3.8-8.9,8.6-9c4.1,0.1,7.7,2.9,8.7,6.9L18,7.8L16.3,9.7
    z"/>
</svg>
